<svg width="48" height="48" viewBox="0 0 48 48" fill="none" xmlns="http://www.w3.org/2000/svg">
<g clip-path="url(#clip0_167_72)">
<path d="M6.60002 21.72L4.83002 27.015V12C4.83002 9.35251 6.98252 7.20001 9.63002 7.20001H20.0325C21.0675 7.20001 22.08 7.53751 22.9125 8.16001L25.7925 10.32C26.205 10.635 26.715 10.8 27.2325 10.8H36.03C38.6775 10.8 40.83 12.9525 40.83 15.6V16.8H13.425C10.3275 16.8 7.57502 18.78 6.59252 21.72H6.60002ZM38.235 38.4H9.82502C7.36502 38.4 5.63252 35.9925 6.41252 33.66L10.0125 22.86C10.5 21.39 11.88 20.4 13.425 20.4H41.835C44.295 20.4 46.0275 22.8075 45.2475 25.14L41.6475 35.94C41.16 37.41 39.78 38.4 38.235 38.4Z" fill="#F1AE00"/>
<path d="M34.8133 25.9438L34.9806 26.6313L35.5818 26.2582C36.5848 25.6338 37.8294 25.5299 38.9233 25.9773C40.8062 26.7476 41.7084 28.8989 40.9382 30.7818L40.911 30.8484C39.7352 33.7227 34.7859 35.5946 32.3322 36.2565C31.916 36.3674 31.4774 36.3285 31.0803 36.1661C30.6832 36.0037 30.3395 35.7255 30.124 35.3532C28.8376 33.1614 26.6191 28.3574 27.7949 25.4831L27.8221 25.4165C28.5923 23.5336 30.7437 22.6314 32.6265 23.4016C33.7204 23.8491 34.5354 24.7955 34.8133 25.9438Z" fill="#D42A2A"/>
<path d="M33.7839 25.9969C34.999 26.0779 30.811 22.0764 28.9967 25.4948C27.5079 28.2997 30.3737 23.1457 33.7839 25.9969Z" fill="white" stroke="white" stroke-linecap="round"/>
</g>
<defs>
<clipPath id="clip0_167_72">
<rect width="48" height="48" fill="white"/>
</clipPath>
</defs>
</svg>
