<svg width="241" height="191" viewBox="0 0 241 191" fill="none" xmlns="http://www.w3.org/2000/svg">
<path d="M113.442 12.1828H61.4417C45.4417 10.6828 13.2417 17.6828 12.4417 57.6828C11.6417 97.6828 12.1084 115.183 12.4417 125.683C11.4417 140.849 15.8604 175.654 57.4417 177.683C98.4417 179.683 109.942 177.016 113.442 177.683M153.442 177.683C149.442 177.683 145.494 126.84 145.442 94.6836C145.389 61.9435 148.442 12.183 153.442 12.183C158.442 12.1829 205.942 9.18483 218.442 28.6846C230.941 48.1843 232.442 138.685 218.442 160.184C204.442 181.683 157.442 177.683 153.442 177.683Z" stroke="black" stroke-width="24" stroke-linecap="round"/>
</svg>
